{
  "accessors": [
    {
      "bufferView": 2,
      "componentType": 5126,
      "count": 192,
      "max": [
        1.005263328552246,
        0.07425762712955475,
        1.000004529953003
      ],
      "min": [
        -1.0008902549743652,
        0.0,
        -1.0
      ],
      "type": "VEC3"
    },
    {
      "bufferView": 2,
      "byteOffset": 2304,
      "componentType": 5126,
      "count": 192,
      "max": [
        0.2042843997478485,
        1.0,
        0.12559674680233002
      ],
      "min": [
        -0.268751323223114,
        0.9632089734077454,
        -0.13836312294006348
      ],
      "type": "VEC3"
    },
    {
      "bufferView": 1,
      "componentType": 5126,
      "count": 192,
      "max": [
        0.4900362491607666,
        0.9630675911903381
      ],
      "min": [
        0.3790619969367981,
        0.8520932793617249
      ],
      "type": "VEC2"
    },
    {
      "bufferView": 0,
      "componentType": 5125,
      "count": 288,
      "type": "SCALAR"
    },
    {
      "bufferView": 2,
      "byteOffset": 4608,
      "componentType": 5126,
      "count": 2714,
      "max": [
        8.480751037597656,
        19.45941162109375,
        6.799621105194092
      ],
      "min": [
        -5.518665313720703,
        0.018277645111083984,
        -7.724550247192383
      ],
      "type": "VEC3"
    },
    {
      "bufferView": 2,
      "byteOffset": 37176,
      "componentType": 5126,
      "count": 2714,
      "max": [
        0.9993616938591003,
        1.0,
        0.9979601502418518
      ],
      "min": [
        -0.997831404209137,
        -1.0,
        -0.9990428686141968
      ],
      "type": "VEC3"
    },
    {
      "bufferView": 1,
      "byteOffset": 1536,
      "componentType": 5126,
      "count": 2714,
      "max": [
        0.9727739095687866,
        0.8555914759635925
      ],
      "min": [
        0.25561851263046265,
        0.04190221428871155
      ],
      "type": "VEC2"
    },
    {
      "bufferView": 0,
      "byteOffset": 1152,
      "componentType": 5125,
      "count": 3984,
      "type": "SCALAR"
    },
    {
      "bufferView": 2,
      "byteOffset": 69744,
      "componentType": 5126,
      "count": 2714,
      "max": [
        8.480751037597656,
        19.459409713745117,
        6.799625396728516
      ],
      "min": [
        -5.518665313720703,
        0.018278002738952637,
        -7.724552154541016
      ],
      "type": "VEC3"
    },
    {
      "bufferView": 2,
      "byteOffset": 102312,
      "componentType": 5126,
      "count": 2714,
      "max": [
        0.9993617534637451,
        1.0,
        0.9979601502418518
      ],
      "min": [
        -0.9978313446044922,
        -1.0,
        -0.9990428686141968
      ],
      "type": "VEC3"
    },
    {
      "bufferView": 1,
      "byteOffset": 23248,
      "componentType": 5126,
      "count": 2714,
      "max": [
        0.9722825288772583,
        0.8520681858062744
      ],
      "min": [
        0.251755028963089,
        0.030387986451387405
      ],
      "type": "VEC2"
    },
    {
      "bufferView": 0,
      "byteOffset": 17088,
      "componentType": 5125,
      "count": 3984,
      "type": "SCALAR"
    },
    {
      "bufferView": 2,
      "byteOffset": 134880,
      "componentType": 5126,
      "count": 2714,
      "max": [
        8.480752944946289,
        19.45941162109375,
        6.799617767333984
      ],
      "min": [
        -5.518667221069336,
        0.018277883529663086,
        -7.724552154541016
      ],
      "type": "VEC3"
    },
    {
      "bufferView": 2,
      "byteOffset": 167448,
      "componentType": 5126,
      "count": 2714,
      "max": [
        0.9993617534637451,
        1.0,
        0.9979601502418518
      ],
      "min": [
        -0.9978313446044922,
        -1.0,
        -0.9990428686141968
      ],
      "type": "VEC3"
    },
    {
      "bufferView": 1,
      "byteOffset": 44960,
      "componentType": 5126,
      "count": 2714,
      "max": [
        0.9694351553916931,
        0.8520577549934387
      ],
      "min": [
        0.25193387269973755,
        0.03057697042822838
      ],
      "type": "VEC2"
    },
    {
      "bufferView": 0,
      "byteOffset": 33024,
      "componentType": 5125,
      "count": 3984,
      "type": "SCALAR"
    },
    {
      "bufferView": 2,
      "byteOffset": 200016,
      "componentType": 5126,
      "count": 2717,
      "max": [
        8.480751037597656,
        19.45941162109375,
        6.799652099609375
      ],
      "min": [
        -5.518665313720703,
        0.018277883529663086,
        -7.724540710449219
      ],
      "type": "VEC3"
    },
    {
      "bufferView": 2,
      "byteOffset": 232620,
      "componentType": 5126,
      "count": 2717,
      "max": [
        0.9993617534637451,
        1.0,
        0.997960090637207
      ],
      "min": [
        -0.997831404209137,
        -1.0,
        -0.9990429282188416
      ],
      "type": "VEC3"
    },
    {
      "bufferView": 1,
      "byteOffset": 66672,
      "componentType": 5126,
      "count": 2717,
      "max": [
        0.97021484375,
        0.8529403209686279
      ],
      "min": [
        0.2579212486743927,
        0.03415343165397644
      ],
      "type": "VEC2"
    },
    {
      "bufferView": 0,
      "byteOffset": 48960,
      "componentType": 5125,
      "count": 3984,
      "type": "SCALAR"
    },
    {
      "bufferView": 2,
      "byteOffset": 265224,
      "componentType": 5126,
      "count": 384,
      "max": [
        2.939512014389038,
        1.4323372840881348,
        4.885693550109863
      ],
      "min": [
        -2.8385977745056152,
        -1.432337760925293,
        -4.8856940269470215
      ],
      "type": "VEC3"
    },
    {
      "bufferView": 2,
      "byteOffset": 269832,
      "componentType": 5126,
      "count": 384,
      "max": [
        0.9955774545669556,
        0.9995951652526855,
        0.9822701811790466
      ],
      "min": [
        -0.9860215783119202,
        -0.9995952248573303,
        -0.9822701215744019
      ],
      "type": "VEC3"
    },
    {
      "bufferView": 1,
      "byteOffset": 88408,
      "componentType": 5126,
      "count": 384,
      "max": [
        0.20395520329475403,
        0.10136440396308899
      ],
      "min": [
        0.15599599480628967,
        0.03741881251335144
      ],
      "type": "VEC2"
    },
    {
      "bufferView": 0,
      "byteOffset": 64896,
      "componentType": 5125,
      "count": 576,
      "type": "SCALAR"
    },
    {
      "bufferView": 2,
      "byteOffset": 274440,
      "componentType": 5126,
      "count": 384,
      "max": [
        2.939512014389038,
        1.4323372840881348,
        4.885693550109863
      ],
      "min": [
        -2.8385977745056152,
        -1.432337760925293,
        -4.8856940269470215
      ],
      "type": "VEC3"
    },
    {
      "bufferView": 2,
      "byteOffset": 279048,
      "componentType": 5126,
      "count": 384,
      "max": [
        0.9955774545669556,
        0.9995951652526855,
        0.9822701811790466
      ],
      "min": [
        -0.9860215783119202,
        -0.9995952248573303,
        -0.9822701215744019
      ],
      "type": "VEC3"
    },
    {
      "bufferView": 1,
      "byteOffset": 91480,
      "componentType": 5126,
      "count": 384,
      "max": [
        0.2094271332025528,
        0.10615266114473343
      ],
      "min": [
        0.15209652483463287,
        0.029711851850152016
      ],
      "type": "VEC2"
    },
    {
      "bufferView": 0,
      "byteOffset": 67200,
      "componentType": 5125,
      "count": 576,
      "type": "SCALAR"
    },
    {
      "bufferView": 2,
      "byteOffset": 283656,
      "componentType": 5126,
      "count": 384,
      "max": [
        2.939512014389038,
        1.4323372840881348,
        4.885693550109863
      ],
      "min": [
        -2.8385977745056152,
        -1.432337760925293,
        -4.8856940269470215
      ],
      "type": "VEC3"
    },
    {
      "bufferView": 2,
      "byteOffset": 288264,
      "componentType": 5126,
      "count": 384,
      "max": [
        0.9955774545669556,
        0.9995951652526855,
        0.9822701811790466
      ],
      "min": [
        -0.9860215783119202,
        -0.9995952248573303,
        -0.9822701215744019
      ],
      "type": "VEC3"
    },
    {
      "bufferView": 1,
      "byteOffset": 94552,
      "componentType": 5126,
      "count": 384,
      "max": [
        0.20262348651885986,
        0.09955978393554688
      ],
      "min": [
        0.1546642780303955,
        0.035614222288131714
      ],
      "type": "VEC2"
    },
    {
      "bufferView": 0,
      "byteOffset": 69504,
      "componentType": 5125,
      "count": 576,
      "type": "SCALAR"
    },
    {
      "bufferView": 2,
      "byteOffset": 292872,
      "componentType": 5126,
      "count": 384,
      "max": [
        2.939512014389038,
        1.4323372840881348,
        4.885693550109863
      ],
      "min": [
        -2.8385977745056152,
        -1.432337760925293,
        -4.8856940269470215
      ],
      "type": "VEC3"
    },
    {
      "bufferView": 2,
      "byteOffset": 297480,
      "componentType": 5126,
      "count": 384,
      "max": [
        0.9955774545669556,
        0.9995951652526855,
        0.9822701811790466
      ],
      "min": [
        -0.9860215783119202,
        -0.9995952248573303,
        -0.9822701215744019
      ],
      "type": "VEC3"
    },
    {
      "bufferView": 1,
      "byteOffset": 97624,
      "componentType": 5126,
      "count": 384,
      "max": [
        0.2043413519859314,
        0.10098206996917725
      ],
      "min": [
        0.15638217329978943,
        0.0370364785194397
      ],
      "type": "VEC2"
    },
    {
      "bufferView": 0,
      "byteOffset": 71808,
      "componentType": 5125,
      "count": 576,
      "type": "SCALAR"
    },
    {
      "bufferView": 2,
      "byteOffset": 302088,
      "componentType": 5126,
      "count": 384,
      "max": [
        2.939512014389038,
        1.4323372840881348,
        4.885693550109863
      ],
      "min": [
        -2.8385977745056152,
        -1.432337760925293,
        -4.8856940269470215
      ],
      "type": "VEC3"
    },
    {
      "bufferView": 2,
      "byteOffset": 306696,
      "componentType": 5126,
      "count": 384,
      "max": [
        0.9955774545669556,
        0.9995951652526855,
        0.9822701811790466
      ],
      "min": [
        -0.9860215783119202,
        -0.9995952248573303,
        -0.9822701215744019
      ],
      "type": "VEC3"
    },
    {
      "bufferView": 1,
      "byteOffset": 100696,
      "componentType": 5126,
      "count": 384,
      "max": [
        0.20240508019924164,
        0.09877587109804153
      ],
      "min": [
        0.15721015632152557,
        0.038516003638505936
      ],
      "type": "VEC2"
    },
    {
      "bufferView": 0,
      "byteOffset": 74112,
      "componentType": 5125,
      "count": 576,
      "type": "SCALAR"
    }
  ],
  "asset": {
    "extras": {
      "author": "Bstew18 (https://sketchfab.com/Bstew18)",
      "license": "CC-BY-4.0 (http://creativecommons.org/licenses/by/4.0/)",
      "source": "https://sketchfab.com/3d-models/low-poly-savanna-scene-6c37657541e840c49f6de899c88617d2",
      "title": "Low Poly Savanna Scene"
    },
    "generator": "Sketchfab-12.65.0",
    "version": "2.0"
  },
  "bufferViews": [
    {
      "buffer": 0,
      "byteLength": 76416,
      "name": "floatBufferViews",
      "target": 34963
    },
    {
      "buffer": 0,
      "byteLength": 103768,
      "byteOffset": 76416,
      "byteStride": 8,
      "name": "floatBufferViews",
      "target": 34962
    },
    {
      "buffer": 0,
      "byteLength": 311304,
      "byteOffset": 180184,
      "byteStride": 12,
      "name": "floatBufferViews",
      "target": 34962
    }
  ],
  "buffers": [
    {
      "byteLength": 491488,
      "uri": "scene.bin"
    }
  ],
  "images": [
    {
      "uri": "textures/lambert3_baseColor.png"
    }
  ],
  "materials": [
    {
      "doubleSided": true,
      "name": "lambert3",
      "pbrMetallicRoughness": {
        "baseColorTexture": {
          "index": 0
        },
        "metallicFactor": 0.0,
        "roughnessFactor": 0.6
      }
    },
    {
      "doubleSided": true,
      "name": "lambert9",
      "pbrMetallicRoughness": {
        "baseColorTexture": {
          "index": 0
        },
        "metallicFactor": 0.0,
        "roughnessFactor": 0.6
      }
    },
    {
      "doubleSided": true,
      "name": "lambert10",
      "pbrMetallicRoughness": {
        "baseColorTexture": {
          "index": 0
        },
        "metallicFactor": 0.0,
        "roughnessFactor": 0.6
      }
    },
    {
      "doubleSided": true,
      "name": "lambert12",
      "pbrMetallicRoughness": {
        "baseColorTexture": {
          "index": 0
        },
        "metallicFactor": 0.0,
        "roughnessFactor": 0.6
      }
    },
    {
      "doubleSided": true,
      "name": "lambert11",
      "pbrMetallicRoughness": {
        "baseColorTexture": {
          "index": 0
        },
        "metallicFactor": 0.0,
        "roughnessFactor": 0.6
      }
    },
    {
      "doubleSided": true,
      "name": "lambert6",
      "pbrMetallicRoughness": {
        "baseColorTexture": {
          "index": 0
        },
        "metallicFactor": 0.0,
        "roughnessFactor": 0.6
      }
    },
    {
      "doubleSided": true,
      "name": "lambert4",
      "pbrMetallicRoughness": {
        "baseColorTexture": {
          "index": 0
        },
        "metallicFactor": 0.0,
        "roughnessFactor": 0.6
      }
    },
    {
      "doubleSided": true,
      "name": "lambert7",
      "pbrMetallicRoughness": {
        "baseColorTexture": {
          "index": 0
        },
        "metallicFactor": 0.0,
        "roughnessFactor": 0.6
      }
    },
    {
      "doubleSided": true,
      "name": "lambert8",
      "pbrMetallicRoughness": {
        "baseColorTexture": {
          "index": 0
        },
        "metallicFactor": 0.0,
        "roughnessFactor": 0.6
      }
    },
    {
      "doubleSided": true,
      "name": "lambert5",
      "pbrMetallicRoughness": {
        "baseColorTexture": {
          "index": 0
        },
        "metallicFactor": 0.0,
        "roughnessFactor": 0.6
      }
    }
  ],
  "meshes": [
    {
      "name": "Ground_lambert3_0",
      "primitives": [
        {
          "attributes": {
            "NORMAL": 1,
            "POSITION": 0,
            "TEXCOORD_0": 2
          },
          "indices": 3,
          "material": 0,
          "mode": 4
        }
      ]
    },
    {
      "name": "Tree_lambert9_0",
      "primitives": [
        {
          "attributes": {
            "NORMAL": 5,
            "POSITION": 4,
            "TEXCOORD_0": 6
          },
          "indices": 7,
          "material": 1,
          "mode": 4
        }
      ]
    },
    {
      "name": "Tree1_lambert10_0",
      "primitives": [
        {
          "attributes": {
            "NORMAL": 9,
            "POSITION": 8,
            "TEXCOORD_0": 10
          },
          "indices": 11,
          "material": 2,
          "mode": 4
        }
      ]
    },
    {
      "name": "Tree2_lambert12_0",
      "primitives": [
        {
          "attributes": {
            "NORMAL": 13,
            "POSITION": 12,
            "TEXCOORD_0": 14
          },
          "indices": 15,
          "material": 3,
          "mode": 4
        }
      ]
    },
    {
      "name": "Tree3_lambert11_0",
      "primitives": [
        {
          "attributes": {
            "NORMAL": 17,
            "POSITION": 16,
            "TEXCOORD_0": 18
          },
          "indices": 19,
          "material": 4,
          "mode": 4
        }
      ]
    },
    {
      "name": "Rock_lambert6_0",
      "primitives": [
        {
          "attributes": {
            "NORMAL": 21,
            "POSITION": 20,
            "TEXCOORD_0": 22
          },
          "indices": 23,
          "material": 5,
          "mode": 4
        }
      ]
    },
    {
      "name": "Rock1_lambert4_0",
      "primitives": [
        {
          "attributes": {
            "NORMAL": 25,
            "POSITION": 24,
            "TEXCOORD_0": 26
          },
          "indices": 27,
          "material": 6,
          "mode": 4
        }
      ]
    },
    {
      "name": "Rock2_lambert7_0",
      "primitives": [
        {
          "attributes": {
            "NORMAL": 29,
            "POSITION": 28,
            "TEXCOORD_0": 30
          },
          "indices": 31,
          "material": 7,
          "mode": 4
        }
      ]
    },
    {
      "name": "Rock3_lambert8_0",
      "primitives": [
        {
          "attributes": {
            "NORMAL": 33,
            "POSITION": 32,
            "TEXCOORD_0": 34
          },
          "indices": 35,
          "material": 8,
          "mode": 4
        }
      ]
    },
    {
      "name": "Rock4_lambert5_0",
      "primitives": [
        {
          "attributes": {
            "NORMAL": 37,
            "POSITION": 36,
            "TEXCOORD_0": 38
          },
          "indices": 39,
          "material": 9,
          "mode": 4
        }
      ]
    }
  ],
  "nodes": [
    {
      "children": [
        1
      ],
      "matrix": [
        0.10528171807527542,
        0.0,
        0.0,
        0.0,
        0.0,
        2.337723749585306e-17,
        -0.10528171807527542,
        0.0,
        0.0,
        0.10528171807527542,
        2.337723749585306e-17,
        0.0,
        0.0,
        0.0,
        0.0,
        1.0
      ],
      "name": "Sketchfab_model"
    },
    {
      "children": [
        2
      ],
      "matrix": [
        1.0,
        0.0,
        0.0,
        0.0,
        0.0,
        0.0,
        1.0,
        0.0,
        0.0,
        -1.0,
        0.0,
        0.0,
        0.0,
        0.0,
        0.0,
        1.0
      ],
      "name": "b0015b92b4e04c859ea4aa09a61f0994.fbx"
    },
    {
      "children": [
        3,
        5,
        7,
        9,
        11,
        13,
        15,
        17,
        19,
        21
      ],
      "name": "RootNode"
    },
    {
      "children": [
        4
      ],
      "matrix": [
        81.0,
        0.0,
        0.0,
        0.0,
        0.0,
        81.0,
        0.0,
        0.0,
        0.0,
        0.0,
        81.0,
        0.0,
        0.0,
        0.0,
        0.0,
        1.0
      ],
      "name": "Ground"
    },
    {
      "mesh": 0,
      "name": "Ground_lambert3_0"
    },
    {
      "children": [
        6
      ],
      "matrix": [
        1.6341959238052368,
        0.0,
        0.0,
        0.0,
        0.0,
        1.6341959238052368,
        0.0,
        0.0,
        0.0,
        0.0,
        1.6341959238052368,
        0.0,
        -50.18351364135742,
        3.6042044162750244,
        -13.555112838745117,
        1.0
      ],
      "name": "Tree"
    },
    {
      "mesh": 1,
      "name": "Tree_lambert9_0"
    },
    {
      "children": [
        8
      ],
      "matrix": [
        -0.6477417191041226,
        7.932548229750675e-17,
        1.2740948821288163,
        0.0,
        3.3106990110863646e-16,
        1.4292960166931152,
        7.932548229750675e-17,
        0.0,
        -1.2740948821288163,
        3.3106990110863646e-16,
        -0.6477417191041226,
        0.0,
        -48.50706481933594,
        2.081342935562134,
        38.14823532104492,
        1.0
      ],
      "name": "Tree1"
    },
    {
      "mesh": 2,
      "name": "Tree1_lambert10_0"
    },
    {
      "children": [
        10
      ],
      "matrix": [
        0.6467831220360489,
        0.0,
        -1.028605395785479,
        0.0,
        0.0,
        1.6420636177062988,
        0.0,
        0.0,
        1.028605395785479,
        0.0,
        0.6467831220360489,
        0.0,
        49.37541580200195,
        3.004030227661133,
        20.512353897094727,
        1.0
      ],
      "name": "Tree2"
    },
    {
      "mesh": 3,
      "name": "Tree2_lambert12_0"
    },
    {
      "children": [
        12
      ],
      "matrix": [
        -0.8972617919654916,
        1.0988287815277577e-16,
        0.058728602278180345,
        0.0,
        1.1731018144503792e-16,
        0.8991817235946655,
        1.0988287815277577e-16,
        0.0,
        -0.058728602278180345,
        1.1731018144503792e-16,
        -0.8972617919654916,
        0.0,
        37.857582092285156,
        2.0008785724639893,
        -38.972900390625,
        1.0
      ],
      "name": "Tree3"
    },
    {
      "mesh": 4,
      "name": "Tree3_lambert11_0"
    },
    {
      "children": [
        14
      ],
      "matrix": [
        1.2916805248982706,
        0.9860328298892197,
        0.157253991088835,
        0.0,
        0.8331301864373871,
        -0.7098322985555678,
        -2.392435853802847,
        0.0,
        -0.5232259267960216,
        0.7499589703833721,
        -0.40471739803220297,
        0.0,
        55.26228713989258,
        4.726522445678711,
        -19.298490524291992,
        1.0
      ],
      "name": "Rock"
    },
    {
      "mesh": 5,
      "name": "Rock_lambert6_0"
    },
    {
      "children": [
        16
      ],
      "matrix": [
        -1.2173824529826798,
        1.0997545023256665,
        1.049278807599283,
        0.0,
        -1.029530340202919,
        1.3691230341683729,
        -2.6294549857090366,
        0.0,
        -0.8448007900021841,
        -0.8356215359473678,
        -0.10432604835183458,
        0.0,
        -40.88707733154297,
        3.5409653186798096,
        -41.11997985839844,
        1.0
      ],
      "name": "Rock1"
    },
    {
      "mesh": 6,
      "name": "Rock1_lambert4_0"
    },
    {
      "children": [
        18
      ],
      "matrix": [
        -0.3657609314131311,
        0.32435211335010694,
        0.6501401065465415,
        0.0,
        1.1362987223704581,
        -0.027397378556015914,
        0.6529363016035956,
        0.0,
        0.10728341152981839,
        0.4567955931469166,
        -0.1675370191488039,
        0.0,
        21.302642822265625,
        0.7412744760513306,
        45.381317138671875,
        1.0
      ],
      "name": "Rock2"
    },
    {
      "mesh": 7,
      "name": "Rock2_lambert7_0"
    },
    {
      "children": [
        20
      ],
      "matrix": [
        0.3878603273160472,
        0.5347135551409706,
        0.3340540265808961,
        0.0,
        -1.00175806987253,
        0.6281377430700903,
        0.15766445833953494,
        0.0,
        -0.06445548750319881,
        -0.20323209291902977,
        0.4001468947161762,
        0.0,
        -30.112058639526367,
        1.2191418409347534,
        19.24320411682129,
        1.0
      ],
      "name": "Rock3"
    },
    {
      "mesh": 8,
      "name": "Rock3_lambert8_0"
    },
    {
      "children": [
        22
      ],
      "matrix": [
        -0.7116512381102551,
        0.10390151111840955,
        -0.45061673039080774,
        0.0,
        -0.3555202963552419,
        -1.2941840404394345,
        0.26305898918742143,
        0.0,
        -0.2489392960008242,
        0.1555889308771636,
        0.4290206514903526,
        0.0,
        10.824527740478516,
        0.08590812236070633,
        -58.40570068359375,
        1.0
      ],
      "name": "Rock4"
    },
    {
      "mesh": 9,
      "name": "Rock4_lambert5_0"
    }
  ],
  "samplers": [
    {
      "magFilter": 9729,
      "minFilter": 9987,
      "wrapS": 10497,
      "wrapT": 10497
    }
  ],
  "scene": 0,
  "scenes": [
    {
      "name": "Sketchfab_Scene",
      "nodes": [
        0
      ]
    }
  ],
  "textures": [
    {
      "sampler": 0,
      "source": 0
    }
  ]
}
